<?xml version="1.0" encoding="utf-8"?>
<!-- Generator: Adobe Illustrator 17.1.0, SVG Export Plug-In . SVG Version: 6.00 Build 0)  -->
<!DOCTYPE svg PUBLIC "-//W3C//DTD SVG 1.1//EN" "http://www.w3.org/Graphics/SVG/1.1/DTD/svg11.dtd">
<svg version="1.1" id="Layer_1" xmlns="http://www.w3.org/2000/svg" xmlns:xlink="http://www.w3.org/1999/xlink" x="0px" y="0px"
	 viewBox="0 600 1000 400" enable-background="new 0 600 1000 400" xml:space="preserve">
<g opacity="0.25">
	<g>
		<path fill="#FFFFFF" d="M174.1,785.8c18.2,0,33.6-7.5,43.8-18.7l4.2,5.7c-11.4,13.2-28.1,20.4-47.8,20.4
			c-35.8,0-62.9-27.1-62.9-62.7c-0.2-35.6,26.9-62.4,62.7-62.4c19.7,0,36.3,7.5,47.8,20.4l-4.2,5.7c-10.2-11.4-25.4-18.7-43.5-18.7
			c-31.6,0-54.7,23.6-54.7,55.2C119.2,762.1,142.5,785.8,174.1,785.8z"/>
		<path fill="#FFFFFF" d="M341.3,668.1c36.1,0,62.9,26.9,62.9,62.9c0,35.6-26.9,62.4-62.9,62.4c-35.6,0-62.4-26.9-62.4-62.4
			C278.9,695,305.7,668.1,341.3,668.1z M341.3,785.8c31.8,0,55-23.4,55-55c0-31.8-23.1-55.2-55-55.2c-31.6,0-54.7,23.4-54.7,55.2
			C286.6,762.4,310,785.8,341.3,785.8z"/>
		<path fill="#FFFFFF" d="M472.4,791.7V669.9h8v114.7h72.4v7.2L472.4,791.7L472.4,791.7z"/>
		<path fill="#FFFFFF" d="M659.2,668.1c36.1,0,62.9,26.9,62.9,62.9c0,35.6-26.9,62.4-62.9,62.4c-35.6,0-62.4-26.9-62.4-62.4
			C596.5,695,623.4,668.1,659.2,668.1z M659.2,785.8c31.8,0,55-23.4,55-55c0-31.8-23.1-55.2-55-55.2c-31.6,0-54.7,23.4-54.7,55.2
			C604.2,762.4,627.6,785.8,659.2,785.8z"/>
		<path fill="#FFFFFF" d="M790.3,669.9h52.2c22.1,0,41,11.9,41,38.1c0,23.9-18.2,37.3-39.8,37.3h-1.2l50.2,45.3v1h-10.2l-51-46.3
			H798v46.3h-8V669.9H790.3z M798,677.1v61.4h44.8c17.7,0,32.3-10.7,32.3-30.3c0-21.4-15.2-31.1-32.3-31.1H798z"/>
	</g>
	<g>
		<path fill="#FFFFFF" d="M146.3,910.1h-35.1v-45.8l30.3-27.6H192v80.1L165.4,941l-27.1,0.2v-24.1l26.9-0.2v-23.6L146.3,910.1z
			 M164.9,861.4h-26.6v24.4h26.9v-24.4H164.9z"/>
		<path fill="#FFFFFF" d="M279.6,885.8v24.6h-62.2l-18.7-16.9v-28.9l30.3-27.4h50.5V869l-18.4,17.2h18.4v-0.4H279.6z M252.5,861.4
			h-26.6v24.4h26.9v-24.4H252.5z"/>
		<path fill="#FFFFFF" d="M287.8,836.8h27.1V854l18.9-17.2h35.1v73.4h-27.1v-49h-26.9v49h-27.1V836.8L287.8,836.8z"/>
		<path fill="#FFFFFF" d="M456.2,885.8v24.6H394l-18.7-16.9v-28.9l30.3-27.4h50.5V869l-18.4,17.2h18.4v-0.4H456.2z M429.1,861.4
			h-26.9v24.4h26.9V861.4z"/>
		<path fill="#FFFFFF" d="M553.5,926.8L534.3,944l-43-48.3v14.7h-26.9v-45.8l30.3-27.6h50.5v44.3L526,898.2L553.5,926.8z
			 M518.2,861.4h-26.9v24.4h26.9V861.4z"/>
		<path fill="#FFFFFF" d="M588.6,910.1h-35.1v-45.8l30.3-27.6h50.5v73.4h-27.1v-16.9L588.6,910.1z M607.2,861.4h-26.9v24.4h26.9
			V861.4z"/>
		<path fill="#FFFFFF" d="M688.8,812.4v24.4h23.6v24.6h-23.6v24.4h23.6v24.6h-50.5v-49h-27.1l27.1-24.6v-24.4H688.8z"/>
		<path fill="#FFFFFF" d="M720.6,864.4L751,837h50.5v46l-29.9,27.4h-50.7v-46H720.6z M774.4,861.4h-26.9v24.4h26.9V861.4z"/>
		<path fill="#FFFFFF" d="M898.8,926.8L879.6,944l-43-48.3v14.7h-26.9v-45.8L840,837h50.5v44.3l-19.2,16.9L898.8,926.8z
			 M863.4,861.4h-26.9v24.4h26.9V861.4z"/>
	</g>
</g>
<g>
	<g>
		<path d="M169.2,780.8c18.2,0,33.6-7.5,43.8-18.7l4.2,5.7c-11.4,13.2-28.1,20.4-47.8,20.4c-35.8,0-62.9-27.1-62.9-62.7
			c-0.2-35.6,26.9-62.4,62.7-62.4c19.7,0,36.3,7.5,47.8,20.4l-4.2,5.7c-10.2-11.4-25.4-18.7-43.5-18.7c-31.6,0-54.7,23.6-54.7,55.2
			C114.2,757.2,137.6,780.8,169.2,780.8z"/>
		<path d="M336.3,663.1c36.1,0,62.9,26.9,62.9,62.9c0,35.6-26.9,62.4-62.9,62.4c-35.6,0-62.4-26.9-62.4-62.4
			C273.9,690,300.7,663.1,336.3,663.1z M336.3,780.8c31.8,0,55-23.4,55-55c0-31.8-23.1-55.2-55-55.2c-31.6,0-54.7,23.4-54.7,55.2
			C281.6,757.4,305,780.8,336.3,780.8z"/>
		<path d="M467.4,786.8V664.9h8v114.7h72.4v7.2H467.4z"/>
		<path d="M654.2,663.1c36.1,0,62.9,26.9,62.9,62.9c0,35.6-26.9,62.4-62.9,62.4c-35.6,0-62.4-26.9-62.4-62.4
			C591.5,690,618.4,663.1,654.2,663.1z M654.2,780.8c31.8,0,55-23.4,55-55c0-31.8-23.1-55.2-55-55.2c-31.6,0-54.7,23.4-54.7,55.2
			C599.3,757.4,622.6,780.8,654.2,780.8z"/>
		<path d="M785.3,664.9h52.2c22.1,0,41,11.9,41,38.1c0,23.9-18.2,37.3-39.8,37.3h-1.2l50.2,45.3v1h-10.2l-51-46.3H793v46.3h-8V664.9
			H785.3z M793,672.1v61.4h44.8c17.7,0,32.3-10.7,32.3-30.3c0-21.4-15.2-31.1-32.3-31.1H793z"/>
	</g>
	<g>
		<path d="M141.3,905.2h-35.1v-45.8l30.3-27.6H187v80.1L160.4,936l-27.1,0.2v-24.1l26.9-0.2v-23.6L141.3,905.2z M160,856.4h-26.6
			v24.4h26.9v-24.4H160z"/>
		<path d="M274.6,880.8v24.6h-62.2l-18.7-16.9v-28.9l30.3-27.4h50.5V864l-18.4,17.2h18.4v-0.4H274.6z M247.5,856.4h-26.6v24.4h26.9
			v-24.4H247.5z"/>
		<path d="M282.8,831.8H310V849l18.9-17.2H364v73.4h-27.1v-49H310v49h-27.1L282.8,831.8L282.8,831.8z"/>
		<path d="M451.2,880.8v24.6H389l-18.7-16.9v-28.9l30.3-27.4h50.5V864l-18.4,17.2h18.4v-0.4H451.2z M424.1,856.4h-26.9v24.4h26.9
			V856.4z"/>
		<path d="M548.5,921.8L529.4,939l-43-48.3v14.7h-26.9v-45.8l30.3-27.6h50.5v44.3l-19.2,16.9L548.5,921.8z M513.2,856.4h-26.9v24.4
			h26.9V856.4z"/>
		<path d="M583.6,905.2h-35.1v-45.8l30.3-27.6h50.5v73.4h-27.1v-16.9L583.6,905.2z M602.2,856.4h-26.9v24.4h26.9V856.4z"/>
		<path d="M683.8,807.4v24.4h23.6v24.6h-23.6v24.4h23.6v24.6H657v-49h-27.1l27.1-24.6v-24.4H683.8z"/>
		<path d="M715.7,859.4L746,832h50.5v46l-29.9,27.4h-50.7v-46H715.7z M769.4,856.4h-26.9v24.4h26.9V856.4z"/>
		<path d="M893.8,921.8L874.6,939l-43-48.3v14.7h-26.9v-45.8L835,832h50.5v44.3l-19.2,16.9L893.8,921.8z M858.5,856.4h-26.9v24.4
			h26.9V856.4z"/>
	</g>
</g>
</svg>
