<?xml version="1.0" encoding="utf-8"?>
<!-- Generator: Adobe Illustrator 17.1.0, SVG Export Plug-In . SVG Version: 6.00 Build 0)  -->
<!DOCTYPE svg PUBLIC "-//W3C//DTD SVG 1.1//EN" "http://www.w3.org/Graphics/SVG/1.1/DTD/svg11.dtd">
<svg version="1.1" id="Layer_2" xmlns="http://www.w3.org/2000/svg" xmlns:xlink="http://www.w3.org/1999/xlink" x="0px" y="0px"
	 viewBox="0 0 1000 1000" enable-background="new 0 0 1000 1000" xml:space="preserve">
<path opacity="0.25" fill="#FFFFFF" enable-background="new    " d="M660,540l263-263c6-6,6-17,0-23l-97-97c-3-3-7-5-11-5
	c-4,0-8,2-11,5L540,420L277,156c-7-6-17-6-23,0l-97,97c-7,7-7,17-1,24l264,263L156,803c-6,7-6,17,0,23l97,97c3,3,7,5,11,5s8-2,11-5
	l265-263l263,263c3,3,7,5,11,5s8-2,11-5l97-97c6-6,6-17,0-23L660,540z"/>
<path d="M620,500l263-263c6-6,6-17,0-23l-97-97c-3-3-7-5-11-5c-4,0-8,2-11,5L500,380L237,116c-7-6-17-6-23,0l-97,97c-7,7-7,17-1,24
	l264,263L116,763c-6,7-6,17,0,23l97,97c3,3,7,5,11,5s8-2,11-5l265-263l263,263c3,3,7,5,11,5s8-2,11-5l97-97c6-6,6-17,0-23L620,500z"
	/>
</svg>
