<?xml version="1.0" encoding="utf-8"?>
<!-- Generator: Adobe Illustrator 17.1.0, SVG Export Plug-In . SVG Version: 6.00 Build 0)  -->
<!DOCTYPE svg PUBLIC "-//W3C//DTD SVG 1.1//EN" "http://www.w3.org/Graphics/SVG/1.1/DTD/svg11.dtd">
<svg version="1.1" id="Layer_1" xmlns="http://www.w3.org/2000/svg" xmlns:xlink="http://www.w3.org/1999/xlink" x="0px" y="0px"
	 viewBox="0 0 1000 1000" enable-background="new 0 0 1000 1000" xml:space="preserve">
<g opacity="0.25">
	<path fill="#FFFFFF" d="M676.1,608.7c11.7-16.4,20-35.9,24.4-57.2c-16.9-3.2-33.8-6.7-50.6-10.6c-2.9-0.7-5.8-1.4-8.7-2.1
		c-9.9-2.4-19.5-4.7-29-6.5c-22.5,40-50,77.1-81.8,110.1c10.6,7.7,23.3,13.1,37.1,15.4C606.7,664.2,650.4,644.5,676.1,608.7z"/>
	<path fill="#FFFFFF" d="M572.7,528.4c-26.5,0.7-49.4,11-61.2,27.4c-12.5,17.5-13.2,43.8-1.6,64.1c0.6,1,1.2,2.1,1.9,3.1
		c27.4-28.5,51.4-60.3,71.6-94.4c-2.4-0.1-4.8-0.2-7.2-0.2C575.1,528.4,573.9,528.4,572.7,528.4z"/>
	<path fill="#FFFFFF" d="M220.7,506.5c62.4-31.5,123.1-66.9,181.2-105.9c31.7-27.6,65.8-52.3,102.1-73.9l15.1,22.1
		c-32.7,25.5-66.3,49.9-100.8,73.1c-20,17.6-39,36.3-56.9,56.3c-22,24.5-48.4,57.5-58.4,96.3c-9.7,37.8-0.5,76.2,23.4,97.6
		c22.2,20,58.8,25.9,93.2,15.2c23.9-7.5,47.4-22,72.8-45.2c-2.1-2.8-4-5.7-5.7-8.8c-16.9-29.5-15.7-66.9,3-93
		c16.9-23.6,46.9-37.7,82.3-38.6c8.6-0.2,17.2,0.3,25.6,1.3c24.5-47.4,41.8-98.6,50.6-151.2l5.6-33.6l18.8,28.4
		c31,46.8,49.2,90.7,55.8,134c2.5,16.6,3.1,33.1,2,49.1c82.6,13.4,166.3,17.3,249.2,11.7c0.4-7.5,0.5-15,0.5-22.5
		c0-255.2-206.8-462-462-462S56,263.6,56,518.8c0,12.8,0.5,25.6,1.6,38.1C115,555.5,172.6,530.8,220.7,506.5z"/>
	<path fill="#FFFFFF" d="M701.9,484.4c-4.6-30.5-15.9-61.7-34.1-94.4c-9.6,40.6-23.9,80.1-42.5,117.5c7.5,1.6,14.9,3.4,22.2,5.1
		c2.9,0.7,5.7,1.4,8.6,2c15.9,3.7,31.9,7.1,47.9,10.1C704.6,511.7,704,498.1,701.9,484.4z"/>
	<path fill="#FFFFFF" d="M945.9,569.8c-73.7,2.6-147-2-219.1-13.6c-5.1,25.2-14.9,48.5-29,68.2c-31.5,44-85.7,68-134.7,59.9
		c-19.5-3.2-37.5-11.3-52.1-22.9c-28.6,26.3-55.5,42.8-83.5,51.5c-14.2,4.4-28.6,6.6-42.6,6.6c-29.2,0-56.6-9.5-76.6-27.4
		c-31.3-28.1-43.6-76.8-31.5-124.2c8.6-33.7,27.4-62.8,46.5-86.6c-29.7,17.3-60,33.7-90.7,49.2c-50.1,25.4-110.6,51.5-172,53.6
		C92.4,808.3,285,980.8,518,980.8c238.4,0,434.6-180.6,459.4-412.4C967.1,568.9,956.5,569.4,945.9,569.8z"/>
</g>
<g>
	<path d="M658.1,589.7c11.7-16.4,20-35.9,24.4-57.2c-16.9-3.2-33.8-6.7-50.6-10.6c-2.9-0.7-5.8-1.4-8.7-2.1
		c-9.9-2.4-19.5-4.7-29-6.5c-22.5,40-50,77.1-81.8,110.1c10.6,7.7,23.3,13.1,37.1,15.4C588.7,645.2,632.4,625.5,658.1,589.7z"/>
	<path d="M554.7,509.4c-26.5,0.7-49.4,11-61.2,27.4c-12.5,17.5-13.2,43.8-1.6,64.1c0.6,1,1.2,2.1,1.9,3.1
		c27.4-28.5,51.4-60.3,71.6-94.4c-2.4-0.1-4.8-0.2-7.2-0.2C557.1,509.4,555.9,509.4,554.7,509.4z"/>
	<path d="M202.7,487.5c62.4-31.5,123.1-66.9,181.2-105.9c31.7-27.6,65.8-52.3,102.1-73.9l15.1,22.1c-32.7,25.5-66.3,49.9-100.8,73.1
		c-20,17.6-39,36.3-56.9,56.3c-22,24.5-48.4,57.5-58.4,96.3c-9.7,37.8-0.5,76.2,23.4,97.6c22.2,20,58.8,25.9,93.2,15.2
		c23.9-7.5,47.4-22,72.8-45.2c-2.1-2.8-4-5.7-5.7-8.8c-16.9-29.5-15.7-66.9,3-93c16.9-23.6,46.9-37.7,82.3-38.6
		c8.6-0.2,17.2,0.3,25.6,1.3c24.5-47.4,41.8-98.6,50.6-151.2l5.6-33.6l18.8,28.4c31,46.8,49.2,90.7,55.8,134
		c2.5,16.6,3.1,33.1,2,49.1c82.6,13.4,166.3,17.3,249.2,11.7c0.4-7.5,0.5-15,0.5-22.5c0-255.2-206.8-462-462-462S38,244.6,38,499.8
		c0,12.8,0.5,25.6,1.6,38.1C97,536.5,154.6,511.8,202.7,487.5z"/>
	<path d="M683.9,465.4c-4.6-30.5-15.9-61.7-34.1-94.4c-9.6,40.6-23.9,80.1-42.5,117.5c7.5,1.6,14.9,3.4,22.2,5.1
		c2.9,0.7,5.7,1.4,8.6,2c15.9,3.7,31.9,7.1,47.9,10.1C686.6,492.7,686,479.1,683.9,465.4z"/>
	<path d="M927.9,550.8c-73.7,2.6-147-2-219.1-13.6c-5.1,25.2-14.9,48.5-29,68.2c-31.5,44-85.7,68-134.7,59.9
		c-19.5-3.2-37.5-11.3-52.1-22.9c-28.6,26.3-55.5,42.8-83.5,51.5c-14.2,4.4-28.6,6.6-42.6,6.6c-29.2,0-56.6-9.5-76.6-27.4
		c-31.3-28.1-43.6-76.8-31.5-124.2c8.6-33.7,27.4-62.8,46.5-86.6c-29.7,17.3-60,33.7-90.7,49.2c-50.1,25.4-110.6,51.5-172,53.6
		C74.4,789.3,267,961.8,500,961.8c238.4,0,434.6-180.6,459.4-412.4C949.1,549.9,938.5,550.4,927.9,550.8z"/>
</g>
</svg>
