<?xml version="1.0" encoding="utf-8"?>
<!-- Generator: Adobe Illustrator 17.1.0, SVG Export Plug-In . SVG Version: 6.00 Build 0)  -->
<!DOCTYPE svg PUBLIC "-//W3C//DTD SVG 1.1//EN" "http://www.w3.org/Graphics/SVG/1.1/DTD/svg11.dtd">
<svg version="1.1" id="Layer_1" xmlns="http://www.w3.org/2000/svg" xmlns:xlink="http://www.w3.org/1999/xlink" x="0px" y="0px"
	 viewBox="0 0 1000 1000" enable-background="new 0 0 1000 1000" xml:space="preserve">
<g id="reload" opacity="0.25">
	<g>
		<path fill="#FFFFFF" d="M692.9,518.1c0,137.8-112.8,250.6-250.6,250.6S191.7,656,191.7,518.1s112.8-250.6,250.6-250.6h75.2
			l-37.6,37.6l87.7,87.7l188-188l-187.9-188l-87.7,87.7l37.6,37.6h-75.3c-206.8,0-376,169.2-376,376S235.5,894,442.3,894
			s376-169.2,376-376H692.9z"/>
	</g>
</g>
<g id="reload_1_">
	<g>
		<path d="M680.6,492.6c0,137.8-112.8,250.6-250.6,250.6S179.4,630.5,179.4,492.6S292.2,242,430,242h75.2l-37.6,37.6l87.7,87.7
			l188-188L555.4-8.6l-87.7,87.7l37.6,37.6H430c-206.8,0-376,169.2-376,376s169.2,375.9,376,375.9s376-169.2,376-376H680.6z"/>
	</g>
</g>
</svg>
